<?xml version="1.0" encoding="utf-8"?>
<!DOCTYPE svg PUBLIC "-//W3C//DTD SVG 1.1//EN" "http://www.w3.org/Graphics/SVG/1.1/DTD/svg11.dtd">
<svg version="1.1" baseProfile="full"
 xmlns="http://www.w3.org/2000/svg"
 xmlns:xlink="http://www.w3.org/1999/xlink"
 xmlns:ev="http://www.w3.org/2001/xml-events" 
  height="19px" 
  width="18px" 
>
<path fill="rgb( 197, 17, 124 )"
 d="M9,18.999 C4.029,18.999 0,14.97 0,9.99900000000002 C0,5.02800000000002 4.029,0.99900000000002 9,0.99900000000002 C13.97,0.99900000000002 18,5.02800000000002 18,9.99900000000002 C18,14.97 13.97,18.999 9,18.999 ZM9,2.40499999999997 C4.80600000000004,2.40499999999997 1.40599999999995,5.80500000000006 1.40599999999995,9.99900000000002 C1.40599999999995,14.193 4.80600000000004,17.5930000000001 9,17.5930000000001 C13.194,17.5930000000001 16.5930000000001,14.193 16.5930000000001,9.99900000000002 C16.5930000000001,5.80500000000006 13.194,2.40499999999997 9,2.40499999999997 ZM7.03099999999995,12.8119999999999 C7.03099999999995,12.8119999999999 9.84300000000007,9.99900000000002 9.84300000000007,9.99900000000002 C9.84300000000007,9.99900000000002 7.03099999999995,7.1869999999999 7.03099999999995,7.1869999999999 C7.03099999999995,7.1869999999999 8.15599999999995,6.0619999999999 8.15599999999995,6.0619999999999 C8.15599999999995,6.0619999999999 12.0930000000001,9.99900000000002 12.0930000000001,9.99900000000002 C12.0930000000001,9.99900000000002 8.15599999999995,13.9369999999999 8.15599999999995,13.9369999999999 C8.15599999999995,13.9369999999999 7.03099999999995,12.8119999999999 7.03099999999995,12.8119999999999 Z "/>
</svg>
