<?xml version="1.0" encoding="utf-8"?>
<!DOCTYPE svg PUBLIC "-//W3C//DTD SVG 1.1//EN" "http://www.w3.org/Graphics/SVG/1.1/DTD/svg11.dtd">
<svg version="1.1" baseProfile="full"
 xmlns="http://www.w3.org/2000/svg"
 xmlns:xlink="http://www.w3.org/1999/xlink"
 xmlns:ev="http://www.w3.org/2001/xml-events" 
  height="21px" 
  width="22px" 
>
<path fill="rgb( 197, 17, 124 )"
 d="M21.991,9.377 C21.9929999999999,9.393 21.9949999999999,9.408 21.9960000000001,9.42400000000001 C21.998,9.45099999999999 21.999,9.47799999999999 22,9.506 C22,9.508 22,9.51000000000001 22,9.51300000000001 C22,9.514 22,9.515 22,9.515 C22,9.51600000000001 22,9.517 22,9.517 C22,10.131 21.538,10.628 20.9690000000001,10.628 C20.9690000000001,10.628 20.0550000000001,10.628 20.0550000000001,10.628 C20.0550000000001,10.628 17.8440000000001,20.157 17.8440000000001,20.157 C17.8440000000001,20.157 17.8409999999999,20.157 17.8409999999999,20.157 C17.729,20.639 17.327,20.999 16.8440000000001,20.999 C16.8440000000001,20.999 16.8440000000001,20.999 16.8440000000001,20.999 C16.8440000000001,20.999 16.8440000000001,20.999 16.8440000000001,20.999 C16.8440000000001,20.999 16.7059999999999,20.999 16.7059999999999,20.999 C16.7059999999999,20.999 16.3969999999999,20.999 16.3969999999999,20.999 C16.3969999999999,20.999 5.16100000000006,20.999 5.16100000000006,20.999 C5.16100000000006,20.999 5.16100000000006,20.999 5.16100000000006,20.999 C5.16000000000008,20.999 5.1579999999999,20.999 5.15599999999995,20.999 C5.15599999999995,20.999 5.15599999999995,20.999 5.15599999999995,20.999 C4.673,20.999 4.27099999999996,20.639 4.15900000000011,20.157 C4.15900000000011,20.157 4.15599999999995,20.157 4.15599999999995,20.157 C4.15599999999995,20.157 1.94499999999994,10.628 1.94499999999994,10.628 C1.94499999999994,10.628 1.03099999999995,10.628 1.03099999999995,10.628 C0.46199999999999,10.628 0,10.131 0,9.517 C0,8.904 0.46199999999999,8.40600000000001 1.03099999999995,8.40600000000001 C1.03099999999995,8.40600000000001 4.95000000000005,8.40600000000001 4.95000000000005,8.40600000000001 C4.95000000000005,8.40600000000001 4.95000000000005,8.40600000000001 4.95000000000005,8.40600000000001 C4.95000000000005,8.40600000000001 8.38699999999994,8.40600000000001 8.38699999999994,8.40600000000001 C8.38699999999994,8.40600000000001 8.42200000000003,8.40600000000001 8.42200000000003,8.40600000000001 C8.42200000000003,8.40600000000001 12.7180000000001,8.40600000000001 12.7180000000001,8.40600000000001 C12.7180000000001,8.40600000000001 12.7529999999999,8.40600000000001 12.7529999999999,8.40600000000001 C12.7529999999999,8.40600000000001 15.297,8.40600000000001 15.297,8.40600000000001 C15.297,8.40600000000001 15.365,8.40600000000001 15.365,8.40600000000001 C15.365,8.40600000000001 16.809,8.40600000000001 16.809,8.40600000000001 C16.809,8.40600000000001 17.05,8.40600000000001 17.05,8.40600000000001 C17.05,8.40600000000001 17.05,8.40600000000001 17.05,8.40600000000001 C17.05,8.40600000000001 20.9690000000001,8.40600000000001 20.9690000000001,8.40600000000001 C20.9690000000001,8.40600000000001 20.9690000000001,8.40600000000001 20.9690000000001,8.40600000000001 C20.9690000000001,8.40600000000001 21.056,8.40600000000001 21.056,8.40600000000001 C21.529,8.45 21.9100000000001,8.83499999999999 21.9849999999999,9.333 C21.9880000000001,9.348 21.99,9.363 21.991,9.377 ZM7.90599999999995,11.74 C7.90599999999995,11.126 7.44399999999996,10.628 6.875,10.628 C6.30500000000006,10.628 5.84400000000005,11.126 5.84400000000005,11.74 C5.84400000000005,11.74 5.84400000000005,17.666 5.84400000000005,17.666 C5.84400000000005,18.279 6.30500000000006,18.777 6.875,18.777 C7.44399999999996,18.777 7.90599999999995,18.279 7.90599999999995,17.666 C7.90599999999995,17.666 7.90599999999995,11.74 7.90599999999995,11.74 ZM12.0309999999999,11.74 C12.0309999999999,11.126 11.569,10.628 11,10.628 C10.4300000000001,10.628 9.96900000000005,11.126 9.96900000000005,11.74 C9.96900000000005,11.74 9.96900000000005,17.666 9.96900000000005,17.666 C9.96900000000005,18.279 10.4300000000001,18.777 11,18.777 C11.569,18.777 12.0309999999999,18.279 12.0309999999999,17.666 C12.0309999999999,17.666 12.0309999999999,11.74 12.0309999999999,11.74 ZM16.1559999999999,11.74 C16.1559999999999,11.126 15.694,10.628 15.125,10.628 C14.5550000000001,10.628 14.0940000000001,11.126 14.0940000000001,11.74 C14.0940000000001,11.74 14.0940000000001,17.666 14.0940000000001,17.666 C14.0940000000001,18.279 14.5550000000001,18.777 15.125,18.777 C15.694,18.777 16.1559999999999,18.279 16.1559999999999,17.666 C16.1559999999999,17.666 16.1559999999999,11.74 16.1559999999999,11.74 ZM12.163,2.654 C12.163,2.654 12.1669999999999,2.651 12.1669999999999,2.651 C12.0830000000001,2.491 12.0309999999999,2.30800000000001 12.0309999999999,2.11 C12.0309999999999,1.497 12.4929999999999,0.999 13.0619999999999,0.999 C13.4659999999999,0.999 13.8130000000001,1.252 13.982,1.616 C13.982,1.616 13.9849999999999,1.61499999999999 13.9849999999999,1.61499999999999 C13.9849999999999,1.61499999999999 16.777,7.295 16.777,7.295 C16.777,7.295 14.443,7.295 14.443,7.295 C14.443,7.295 12.163,2.654 12.163,2.654 ZM9.83899999999994,2.654 C9.83899999999994,2.654 7.55899999999997,7.295 7.55899999999997,7.295 C7.55899999999997,7.295 5.22499999999991,7.295 5.22499999999991,7.295 C5.22499999999991,7.295 8.01600000000008,1.61499999999999 8.01600000000008,1.61499999999999 C8.01600000000008,1.61499999999999 8.01800000000003,1.61499999999999 8.01800000000003,1.61499999999999 C8.1880000000001,1.251 8.5329999999999,0.999 8.9369999999999,0.999 C9.50700000000006,0.999 9.96900000000005,1.497 9.96900000000005,2.11 C9.96900000000005,2.307 9.91699999999992,2.48999999999999 9.83300000000008,2.651 C9.83300000000008,2.651 9.83899999999994,2.654 9.83899999999994,2.654 Z "/>
</svg>
