<?xml version="1.0" encoding="utf-8"?>
<!DOCTYPE svg PUBLIC "-//W3C//DTD SVG 1.1//EN" "http://www.w3.org/Graphics/SVG/1.1/DTD/svg11.dtd">
<svg version="1.1" baseProfile="full"
 xmlns="http://www.w3.org/2000/svg"
 xmlns:xlink="http://www.w3.org/1999/xlink"
 xmlns:ev="http://www.w3.org/2001/xml-events" 
  height="10px" 
  width="15px" 
>
<path fill="rgb( 197, 17, 124 )"
 d="M14.342,9.99499999999989 C14.342,9.99499999999989 1.65100000000001,9.99499999999989 1.65100000000001,9.99499999999989 C1.28800000000001,9.99499999999989 0.99400000000003,9.69300000000021 0.99400000000003,9.32099999999991 C0.99400000000003,9.32099999999991 0.99400000000003,1.88099999999986 0.99400000000003,1.88099999999986 C0.99400000000003,1.88099999999986 7.5,7.39499999999998 7.5,7.39499999999998 C7.774,7.62800000000016 8.21899999999999,7.62800000000016 8.49400000000003,7.39499999999998 C8.49400000000003,7.39499999999998 15,1.88099999999986 15,1.88099999999986 C15,1.88099999999986 15,9.32099999999991 15,9.32099999999991 C15,9.69300000000021 14.705,9.99499999999989 14.342,9.99499999999989 ZM5.04300000000001,6.01499999999987 C4.93599999999998,5.90099999999984 4.762,5.89699999999993 4.65199999999999,6.00500000000011 C4.65199999999999,6.00500000000011 1.58800000000002,9.00300000000016 1.58800000000002,9.00300000000016 C1.47899999999999,9.11099999999988 1.47399999999999,9.28999999999996 1.57799999999997,9.404 C1.63299999999998,9.46199999999999 1.70499999999998,9.49099999999999 1.77800000000002,9.49099999999999 C1.84699999999998,9.49099999999999 1.916,9.46500000000015 1.96800000000002,9.41300000000001 C1.96800000000002,9.41300000000001 5.03300000000002,6.41499999999996 5.03300000000002,6.41499999999996 C5.14299999999997,6.30799999999999 5.14699999999999,6.12800000000016 5.04300000000001,6.01499999999987 ZM14.406,9.00300000000016 C14.406,9.00300000000016 11.341,6.00500000000011 11.341,6.00500000000011 C11.232,5.89800000000014 11.058,5.90099999999984 10.952,6.01499999999987 C10.846,6.12800000000016 10.851,6.30799999999999 10.962,6.41499999999996 C10.962,6.41499999999996 14.025,9.41300000000001 14.025,9.41300000000001 C14.078,9.46500000000015 14.147,9.49099999999999 14.215,9.49099999999999 C14.289,9.49099999999999 14.361,9.46199999999999 14.415,9.404 C14.52,9.28999999999996 14.516,9.11099999999988 14.406,9.00300000000016 ZM7.53300000000002,6.5300000000002 C7.53300000000002,6.5300000000002 1.21100000000001,1.17200000000003 1.21100000000001,1.17200000000003 C1.327,1.06399999999985 1.48099999999999,0.99499999999989 1.65100000000001,0.99499999999989 C1.65100000000001,0.99499999999989 14.342,0.99499999999989 14.342,0.99499999999989 C14.513,0.99499999999989 14.667,1.06399999999985 14.783,1.17200000000003 C14.783,1.17200000000003 8.46100000000001,6.5300000000002 8.46100000000001,6.5300000000002 C8.20400000000001,6.74800000000005 7.78899999999999,6.74800000000005 7.53300000000002,6.5300000000002 Z "/>
</svg>
