<?xml version="1.0" encoding="utf-8"?>
<!DOCTYPE svg PUBLIC "-//W3C//DTD SVG 1.1//EN" "http://www.w3.org/Graphics/SVG/1.1/DTD/svg11.dtd">
<svg version="1.1" baseProfile="full"
 xmlns="http://www.w3.org/2000/svg"
 xmlns:xlink="http://www.w3.org/1999/xlink"
 xmlns:ev="http://www.w3.org/2001/xml-events" 
  height="13px" 
  width="13px" 
>
<path fill="rgb( 197, 17, 124 )"
 d="M12.9640000000001,2.34999999999991 C12.9450000000001,2.2940000000001 12.904,2.24800000000005 12.8390000000001,2.21100000000001 C12.8390000000001,2.21100000000001 9.86699999999996,1.0329999999999 9.86699999999996,1.0329999999999 C9.71900000000005,0.98700000000008 9.61199999999997,1.02800000000002 9.54700000000003,1.1579999999999 C9.54700000000003,1.1579999999999 7.90899999999999,4.42900000000009 7.90899999999999,4.42900000000009 C7.85299999999995,4.52099999999996 7.86699999999996,4.61799999999994 7.95000000000005,4.72000000000003 C7.95000000000005,4.72000000000003 9.54700000000003,6.31400000000008 9.54700000000003,6.31400000000008 C8.70500000000004,7.66300000000001 7.62099999999998,8.74900000000002 6.298,9.57099999999991 C6.298,9.57099999999991 4.70000000000005,7.96299999999997 4.70000000000005,7.96299999999997 C4.59799999999996,7.88000000000011 4.50099999999998,7.86599999999999 4.40899999999999,7.92200000000003 C4.40899999999999,7.92200000000003 1.13099999999997,9.55700000000002 1.13099999999997,9.55700000000002 C1.00099999999998,9.62200000000007 0.96000000000004,9.72800000000007 1.00599999999997,9.87599999999998 C1.00599999999997,9.87599999999998 2.18600000000004,12.8420000000001 2.18600000000004,12.8420000000001 C2.22299999999996,12.9070000000002 2.26999999999998,12.953 2.32500000000005,12.9810000000002 C2.34400000000005,12.9899999999998 2.37599999999998,12.9940000000001 2.42200000000003,12.9940000000001 C2.46000000000004,12.9940000000001 2.49199999999996,12.9899999999998 2.51999999999998,12.9810000000002 C5.24199999999996,12.6390000000001 7.58000000000004,11.4949999999999 9.53399999999999,9.54999999999995 C11.487,7.60500000000002 12.635,5.26999999999998 12.978,2.5440000000001 C12.987,2.51600000000008 12.992,2.48399999999992 12.992,2.44699999999989 C12.992,2.4190000000001 12.982,2.38699999999994 12.9640000000001,2.34999999999991 C12.9640000000001,2.34999999999991 12.9640000000001,2.34999999999991 12.9640000000001,2.34999999999991 Z "/>
</svg>
