<?xml version="1.0" encoding="utf-8"?>
<!DOCTYPE svg PUBLIC "-//W3C//DTD SVG 1.1//EN" "http://www.w3.org/Graphics/SVG/1.1/DTD/svg11.dtd">
<svg version="1.1" baseProfile="full"
 xmlns="http://www.w3.org/2000/svg"
 xmlns:xlink="http://www.w3.org/1999/xlink"
 xmlns:ev="http://www.w3.org/2001/xml-events" 
  height="71px" 
  width="77px" 
>
<path fill="rgb( 197, 17, 124 )"
 d="M55.098,66.177 C55.098,65.858 54.981,65.614 54.748,65.443 C54.514,65.272 54.172,65.187 53.721,65.187 C53.721,65.187 53.1,65.187 53.1,65.187 C53.094,65.187 53.089,65.192 53.089,65.198 C53.089,65.198 53.089,67.155 53.089,67.155 C53.089,67.161 53.094,67.166 53.1,67.166 C53.1,67.166 53.709,67.166 53.709,67.166 C54.069,67.166 54.352,67.12 54.558,67.029 C54.918,66.87 55.098,66.586 55.098,66.177 C55.098,66.177 55.098,66.177 55.098,66.177 ZM36.393,34.348 C35.93,33.297 35.017,22.466 40.565,27.771 C40.183,30.513 40.218,33.659 40.642,35.807 C40.574,35.846 36.747,35.15 36.393,34.348 C36.393,34.348 36.393,34.348 36.393,34.348 ZM60.116,46.351 C58.934,43.707 63.065,39.73 62.948,38.259 C55.991,32.506 51.049,35.749 50.177,44.219 C53.659,44.824 56.987,45.541 60.116,46.351 C60.116,46.351 60.116,46.351 60.116,46.351 ZM66.773,42.905 C68.715,43.433 76.584,44.906 75.966,47.463 C75.143,50.867 68.975,47.921 65.836,45.585 C63.91,49.348 60.18,48.331 61.418,44.489 C61.988,42.718 64.073,40.157 64.145,38.645 C65.077,37.561 67.794,38.418 66.773,42.905 C66.773,42.905 66.773,42.905 66.773,42.905 ZM73.716,46.452 C74.141,46.493 74.458,46.84 74.423,47.227 C74.389,47.615 74.016,47.896 73.59,47.856 C73.165,47.815 72.848,47.467 72.883,47.08 C72.918,46.693 73.291,46.412 73.716,46.452 C73.716,46.452 73.716,46.452 73.716,46.452 ZM48.736,44.004 C46.263,43.812 43.725,43.678 41.135,43.61 C28.055,43.266 16.859,44.434 4.447,48.085 C1.935,49.243 0.565,44.326 4.23200000000003,42.611 C4.15199999999999,40.415 5.11599999999999,38.437 7.15600000000001,37.148 C14.172,32.713 43.465,36.954 48.736,44.004 C48.736,44.004 48.736,44.004 48.736,44.004 ZM15.865,38.102 C14.717,38.642 9.43700000000001,38.911 8.05399999999997,42.002 C6.58699999999999,42.321 6.39499999999998,39.609 9.065,38.25 C11.708,36.903 16.371,37.865 15.865,38.102 C15.865,38.102 15.865,38.102 15.865,38.102 ZM47.645,22.287 C49.917,22.505 51.73,23.623 51.687,24.883 C46.112,35.598 47.024,39.483 46.04,39.219 C43.418,38.519 43.679,21.907 47.645,22.287 C47.645,22.287 47.645,22.287 47.645,22.287 ZM24.956,8.95399999999999 C25.106,9.84 25.299,11.058 25.503,12.488 C28.107,9.979 30.53,7.667 31.997,6.081 C32.113,5.96299999999999 32.24,5.861 32.376,5.777 C31.363,4.608 31.463,2.848 32.618,1.806 C33.794,0.746 35.614,0.753 36.688,1.92100000000001 C42.462,8.747 49.139,15.87 55.199,22.332 C56.334,23.542 58.464,25.344 55.517,24.598 C51.453,23.011 40.955,13.794 35.179,8.437 C35.125,8.51000000000001 35.066,8.581 35,8.648 C34.244,9.34699999999999 30.276,12.819 26.01,16.354 C26.683,22.003 27.191,28.895 26.345,32.535 C25.724,35.209 25.26,33.393 24.853,31.932 C23.735,27.91 22.812,23.82 21.852,19.73 C18.05,22.742 14.792,25.069 14.315,24.628 C15.352,22.744 18.07,19.814 21.142,16.747 C20.586,14.456 19.999,12.17 19.342,9.902 C19.018,8.536 20.011,7.215 21.561,6.953 C23.111,6.691 24.631,7.587 24.956,8.95399999999999 C24.956,8.95399999999999 24.956,8.95399999999999 24.956,8.95399999999999 ZM20.055,58.722 C20.055,58.722 16.441,58.722 16.441,58.722 C16.436,58.722 16.431,58.719 16.429,58.714 C16.429,58.714 14.475,55.372 14.475,55.372 C14.473,55.368 14.468,55.365 14.463,55.365 C14.463,55.365 14.44,55.365 14.44,55.365 C14.432,55.365 14.425,55.372 14.425,55.379 C14.425,55.379 14.425,58.707 14.425,58.707 C14.425,58.715 14.419,58.722 14.411,58.722 C14.411,58.722 11.383,58.722 11.383,58.722 C11.375,58.722 11.369,58.715 11.369,58.707 C11.369,58.707 11.369,50.826 11.369,50.826 C11.369,50.818 11.375,50.811 11.383,50.811 C11.383,50.811 14.411,50.811 14.411,50.811 C14.419,50.811 14.425,50.818 14.425,50.826 C14.425,50.826 14.425,53.905 14.425,53.905 C14.425,53.913 14.432,53.919 14.44,53.919 C14.44,53.919 14.463,53.919 14.463,53.919 C14.468,53.919 14.473,53.917 14.475,53.912 C14.475,53.912 16.349,50.818 16.349,50.818 C16.351,50.814 16.356,50.811 16.361,50.811 C16.361,50.811 19.804,50.811 19.804,50.811 C19.809,50.811 19.814,50.814 19.817,50.819 C19.819,50.823 19.819,50.829 19.816,50.834 C19.816,50.834 17.146,54.51 17.146,54.51 C17.142,54.514 17.142,54.521 17.146,54.526 C17.146,54.526 20.067,58.699 20.067,58.699 C20.07,58.704 20.07,58.709 20.068,58.714 C20.065,58.719 20.061,58.722 20.055,58.722 C20.055,58.722 20.055,58.722 20.055,58.722 ZM28.922,53.648 C28.922,54.378 28.667,55 28.157,55.512 C27.542,56.13 26.663,56.439 25.523,56.439 C25.523,56.439 23.86,56.439 23.86,56.439 C23.853,56.439 23.846,56.445 23.846,56.453 C23.846,56.453 23.846,58.707 23.846,58.707 C23.846,58.715 23.84,58.722 23.832,58.722 C23.832,58.722 20.804,58.722 20.804,58.722 C20.796,58.722 20.789,58.715 20.789,58.707 C20.789,58.707 20.789,50.826 20.789,50.826 C20.789,50.818 20.796,50.811 20.804,50.811 C20.804,50.811 25.466,50.811 25.466,50.811 C26.599,50.811 27.473,51.102 28.089,51.681 C28.644,52.201 28.922,52.857 28.922,53.648 C28.922,53.648 28.922,53.648 28.922,53.648 ZM25.842,53.625 C25.842,53.339 25.755,53.116 25.58,52.958 C25.344,52.748 24.96,52.642 24.428,52.642 C24.428,52.642 23.781,52.642 23.781,52.642 C23.773,52.642 23.767,52.648 23.767,52.656 C23.767,52.656 23.767,54.594 23.767,54.594 C23.767,54.602 23.773,54.608 23.781,54.608 C23.781,54.608 24.44,54.608 24.44,54.608 C24.789,54.608 25.067,54.567 25.272,54.484 C25.652,54.326 25.842,54.039 25.842,53.625 C25.842,53.625 25.842,53.625 25.842,53.625 ZM37.796,58.722 C37.796,58.722 34.61,58.722 34.61,58.722 C34.604,58.722 34.599,58.718 34.597,58.712 C34.597,58.712 34.055,57.025 34.055,57.025 C34.054,57.019 34.048,57.015 34.042,57.015 C34.042,57.015 31.667,57.015 31.667,57.015 C31.661,57.015 31.656,57.019 31.654,57.025 C31.654,57.025 31.124,58.712 31.124,58.712 C31.122,58.717 31.117,58.722 31.11,58.722 C31.11,58.722 28.084,58.722 28.084,58.722 C28.08,58.722 28.076,58.72 28.073,58.715 C28.07,58.712 28.069,58.707 28.071,58.703 C28.071,58.703 30.855,50.821 30.855,50.821 C30.857,50.815 30.863,50.811 30.869,50.811 C30.869,50.811 34.966,50.811 34.966,50.811 C34.972,50.811 34.978,50.815 34.98,50.82 C34.98,50.82 37.809,58.703 37.809,58.703 C37.811,58.707 37.81,58.712 37.807,58.715 C37.805,58.72 37.801,58.722 37.796,58.722 C37.796,58.722 37.796,58.722 37.796,58.722 ZM33.704,55.143 C33.704,55.143 32.881,52.697 32.881,52.697 C32.879,52.691 32.874,52.688 32.867,52.688 C32.867,52.688 32.842,52.688 32.842,52.688 C32.836,52.688 32.831,52.691 32.829,52.697 C32.829,52.697 32.017,55.143 32.017,55.143 C32.015,55.148 32.016,55.153 32.019,55.156 C32.021,55.16 32.026,55.162 32.03,55.162 C32.03,55.162 33.691,55.162 33.691,55.162 C33.695,55.162 33.699,55.16 33.702,55.156 C33.704,55.152 33.705,55.148 33.704,55.143 C33.704,55.143 33.704,55.143 33.704,55.143 ZM44.255,58.543 C43.848,58.655 43.456,58.735 43.08,58.784 C42.7,58.833 42.349,58.857 42.03,58.857 C40.517,58.857 39.335,58.473 38.483,57.704 C37.669,56.974 37.263,55.995 37.263,54.766 C37.263,53.621 37.624,52.688 38.346,51.964 C39.206,51.105 40.46,50.676 42.11,50.676 C42.513,50.676 42.905,50.702 43.285,50.755 C43.399,50.77 43.657,50.815 44.06,50.89 C44.06,50.89 44.231,50.922 44.231,50.922 C44.238,50.924 44.243,50.929 44.243,50.936 C44.243,50.936 44.243,52.994 44.243,52.994 C44.243,52.999 44.24,53.003 44.237,53.006 C44.233,53.009 44.228,53.009 44.223,53.007 C44.001,52.921 43.754,52.85 43.484,52.794 C43.207,52.738 42.924,52.71 42.635,52.71 C41.996,52.71 41.477,52.897 41.078,53.27 C40.679,53.642 40.479,54.118 40.479,54.699 C40.479,55.218 40.609,55.651 40.867,55.998 C41.239,56.495 41.848,56.744 42.692,56.744 C42.905,56.744 43.118,56.725 43.33,56.687 C43.54,56.651 43.845,56.57 44.247,56.444 C44.252,56.443 44.256,56.444 44.26,56.447 C44.264,56.45 44.266,56.454 44.266,56.458 C44.266,56.458 44.266,58.53 44.266,58.53 C44.266,58.536 44.262,58.542 44.255,58.543 C44.255,58.543 44.255,58.543 44.255,58.543 ZM53.75,58.722 C53.75,58.722 50.136,58.722 50.136,58.722 C50.131,58.722 50.127,58.719 50.124,58.714 C50.124,58.714 48.17,55.372 48.17,55.372 C48.168,55.368 48.163,55.365 48.158,55.365 C48.158,55.365 48.135,55.365 48.135,55.365 C48.127,55.365 48.121,55.372 48.121,55.379 C48.121,55.379 48.121,58.707 48.121,58.707 C48.121,58.715 48.114,58.722 48.107,58.722 C48.107,58.722 45.078,58.722 45.078,58.722 C45.07,58.722 45.064,58.715 45.064,58.707 C45.064,58.707 45.064,50.826 45.064,50.826 C45.064,50.818 45.07,50.811 45.078,50.811 C45.078,50.811 48.107,50.811 48.107,50.811 C48.114,50.811 48.121,50.818 48.121,50.826 C48.121,50.826 48.121,53.905 48.121,53.905 C48.121,53.913 48.127,53.919 48.135,53.919 C48.135,53.919 48.158,53.919 48.158,53.919 C48.163,53.919 48.168,53.917 48.17,53.912 C48.17,53.912 50.044,50.818 50.044,50.818 C50.046,50.814 50.051,50.811 50.056,50.811 C50.056,50.811 53.499,50.811 53.499,50.811 C53.504,50.811 53.509,50.814 53.512,50.819 C53.514,50.823 53.514,50.829 53.511,50.834 C53.511,50.834 50.841,54.51 50.841,54.51 C50.838,54.514 50.837,54.521 50.841,54.526 C50.841,54.526 53.762,58.699 53.762,58.699 C53.765,58.704 53.766,58.709 53.763,58.714 C53.761,58.719 53.756,58.722 53.75,58.722 C53.75,58.722 53.75,58.722 53.75,58.722 ZM63.162,58.722 C63.162,58.722 60.133,58.722 60.133,58.722 C60.125,58.722 60.119,58.715 60.119,58.707 C60.119,58.707 60.119,54.306 60.119,54.306 C60.119,54.298 60.112,54.291 60.105,54.291 C60.105,54.291 60.082,54.291 60.082,54.291 C60.077,54.291 60.072,54.295 60.07,54.3 C60.07,54.3 58.058,58.713 58.058,58.713 C58.056,58.718 58.051,58.722 58.046,58.722 C58.046,58.722 54.499,58.722 54.499,58.722 C54.491,58.722 54.485,58.715 54.485,58.707 C54.485,58.707 54.485,50.826 54.485,50.826 C54.485,50.818 54.491,50.811 54.499,50.811 C54.499,50.811 57.527,50.811 57.527,50.811 C57.535,50.811 57.541,50.818 57.541,50.826 C57.541,50.826 57.541,55.317 57.541,55.317 C57.541,55.325 57.548,55.332 57.556,55.332 C57.556,55.332 57.578,55.332 57.578,55.332 C57.584,55.332 57.588,55.329 57.591,55.323 C57.591,55.323 59.602,50.82 59.602,50.82 C59.604,50.814 59.609,50.811 59.615,50.811 C59.615,50.811 63.162,50.811 63.162,50.811 C63.169,50.811 63.175,50.818 63.175,50.826 C63.175,50.826 63.175,58.707 63.175,58.707 C63.175,58.715 63.169,58.722 63.162,58.722 C63.162,58.722 63.162,58.722 63.162,58.722 ZM58.197,66.177 C58.197,66.988 57.937,67.647 57.416,68.155 C56.827,68.724 55.989,69.008 54.902,69.008 C54.902,69.008 50.104,69.008 50.104,69.008 C50.098,69.008 50.093,69.003 50.093,68.998 C50.093,68.998 50.093,61.058 50.093,61.058 C50.093,61.052 50.098,61.047 50.104,61.047 C50.104,61.047 53.158,61.047 53.158,61.047 C53.165,61.047 53.169,61.052 53.169,61.058 C53.169,61.058 53.169,63.334 53.169,63.334 C53.169,63.34 53.174,63.345 53.18,63.345 C53.18,63.345 54.902,63.345 54.902,63.345 C55.989,63.345 56.823,63.625 57.405,64.186 C57.933,64.695 58.197,65.358 58.197,66.177 C58.197,66.177 58.197,66.177 58.197,66.177 ZM49.282,68.829 C48.871,68.941 48.476,69.022 48.096,69.071 C47.713,69.12 47.362,69.145 47.04,69.145 C45.517,69.145 44.327,68.758 43.47,67.985 C42.652,67.249 42.243,66.264 42.243,65.028 C42.243,63.876 42.606,62.936 43.333,62.208 C44.197,61.343 45.46,60.911 47.12,60.911 C47.526,60.911 47.92,60.938 48.303,60.991 C48.418,61.006 48.678,61.052 49.083,61.127 C49.083,61.127 49.258,61.16 49.258,61.16 C49.263,61.161 49.267,61.165 49.267,61.17 C49.267,61.17 49.267,63.249 49.267,63.249 C49.267,63.253 49.265,63.257 49.262,63.258 C49.259,63.261 49.256,63.261 49.252,63.26 C49.026,63.171 48.777,63.099 48.503,63.043 C48.225,62.987 47.939,62.958 47.648,62.958 C47.005,62.958 46.484,63.146 46.082,63.521 C45.68,63.897 45.479,64.376 45.479,64.96 C45.479,65.483 45.609,65.919 45.869,66.268 C46.244,66.768 46.857,67.018 47.706,67.018 C47.92,67.018 48.134,66.999 48.348,66.961 C48.561,66.924 48.87,66.842 49.276,66.715 C49.279,66.714 49.283,66.715 49.285,66.717 C49.288,66.719 49.29,66.722 49.29,66.725 C49.29,66.725 49.29,68.818 49.29,68.818 C49.29,68.823 49.287,68.828 49.282,68.829 C49.282,68.829 49.282,68.829 49.282,68.829 ZM41.635,69.008 C41.635,69.008 34.563,69.008 34.563,69.008 C34.557,69.008 34.552,69.003 34.552,68.998 C34.552,68.998 34.552,61.058 34.552,61.058 C34.552,61.052 34.557,61.047 34.563,61.047 C34.563,61.047 41.554,61.047 41.554,61.047 C41.56,61.047 41.565,61.052 41.565,61.058 C41.565,61.058 41.565,62.913 41.565,62.913 C41.565,62.919 41.56,62.924 41.554,62.924 C41.554,62.924 37.639,62.924 37.639,62.924 C37.633,62.924 37.628,62.929 37.628,62.935 C37.628,62.935 37.628,64.062 37.628,64.062 C37.628,64.068 37.633,64.073 37.639,64.073 C37.639,64.073 41.382,64.073 41.382,64.073 C41.388,64.073 41.393,64.078 41.393,64.083 C41.393,64.083 41.393,65.882 41.393,65.882 C41.393,65.887 41.388,65.892 41.382,65.892 C41.382,65.892 37.639,65.892 37.639,65.892 C37.633,65.892 37.628,65.897 37.628,65.903 C37.628,65.903 37.628,67.121 37.628,67.121 C37.628,67.127 37.633,67.132 37.639,67.132 C37.639,67.132 41.635,67.132 41.635,67.132 C41.641,67.132 41.645,67.137 41.645,67.143 C41.645,67.143 41.645,68.998 41.645,68.998 C41.645,69.003 41.641,69.008 41.635,69.008 C41.635,69.008 41.635,69.008 41.635,69.008 ZM29.823,66.871 C29.823,66.871 29.823,63.106 29.823,63.106 C29.823,63.099 29.818,63.095 29.812,63.095 C29.812,63.095 28.468,63.095 28.468,63.095 C28.462,63.095 28.457,63.099 28.457,63.106 C28.457,63.106 28.457,64.061 28.457,64.061 C28.457,64.676 28.411,65.168 28.319,65.54 C28.206,66.011 27.993,66.453 27.678,66.865 C27.675,66.868 27.675,66.872 27.677,66.876 C27.679,66.879 27.683,66.882 27.687,66.882 C27.687,66.882 29.812,66.882 29.812,66.882 C29.818,66.882 29.823,66.877 29.823,66.871 C29.823,66.871 29.823,66.871 29.823,66.871 ZM33.738,70.001 C33.738,70.001 30.683,70.001 30.683,70.001 C30.677,70.001 30.672,69.997 30.672,69.991 C30.672,69.991 30.672,69.019 30.672,69.019 C30.672,69.013 30.668,69.008 30.661,69.008 C30.661,69.008 27.113,69.008 27.113,69.008 C27.108,69.008 27.103,69.013 27.103,69.019 C27.103,69.019 27.103,69.991 27.103,69.991 C27.103,69.997 27.098,70.001 27.092,70.001 C27.092,70.001 24.037,70.001 24.037,70.001 C24.031,70.001 24.027,69.997 24.027,69.991 C24.027,69.991 24.027,66.892 24.027,66.892 C24.027,66.887 24.031,66.882 24.037,66.882 C24.037,66.882 24.642,66.882 24.642,66.882 C24.645,66.882 24.648,66.881 24.649,66.879 C25.122,66.409 25.439,65.849 25.599,65.198 C25.698,64.797 25.748,64.262 25.748,63.595 C25.748,63.595 25.748,61.058 25.748,61.058 C25.748,61.052 25.753,61.047 25.759,61.047 C25.759,61.047 32.888,61.047 32.888,61.047 C32.894,61.047 32.899,61.052 32.899,61.058 C32.899,61.058 32.899,66.871 32.899,66.871 C32.899,66.877 32.904,66.882 32.91,66.882 C32.91,66.882 33.738,66.882 33.738,66.882 C33.743,66.882 33.749,66.887 33.749,66.892 C33.749,66.892 33.749,69.991 33.749,69.991 C33.749,69.997 33.743,70.001 33.738,70.001 C33.738,70.001 33.738,70.001 33.738,70.001 ZM23.602,66.745 C23.602,67.382 23.353,67.901 22.856,68.303 C22.159,68.864 21.023,69.145 19.447,69.145 C18.796,69.145 18.251,69.115 17.811,69.054 C17.373,68.993 16.888,68.899 16.356,68.771 C16.351,68.771 16.348,68.766 16.348,68.761 C16.348,68.761 16.348,66.715 16.348,66.715 C16.348,66.712 16.349,66.709 16.352,66.707 C16.356,66.705 16.359,66.704 16.363,66.706 C16.764,66.862 17.207,66.989 17.691,67.087 C18.18,67.185 18.643,67.234 19.079,67.234 C19.554,67.234 19.902,67.147 20.124,66.973 C20.285,66.844 20.365,66.688 20.365,66.506 C20.365,66.294 20.292,66.123 20.147,65.995 C19.948,65.82 19.623,65.733 19.172,65.733 C19.172,65.733 17.69,65.733 17.69,65.733 C17.684,65.733 17.679,65.728 17.679,65.722 C17.679,65.722 17.679,64.174 17.679,64.174 C17.679,64.168 17.684,64.164 17.69,64.164 C17.69,64.164 19.137,64.164 19.137,64.164 C19.436,64.164 19.672,64.133 19.848,64.073 C20.155,63.967 20.308,63.773 20.308,63.493 C20.308,63.227 20.143,63.042 19.814,62.936 C19.584,62.86 19.29,62.822 18.93,62.822 C18.54,62.822 18.152,62.854 17.766,62.918 C17.383,62.982 16.985,63.085 16.569,63.226 C16.565,63.227 16.562,63.227 16.559,63.225 C16.556,63.223 16.554,63.22 16.554,63.216 C16.554,63.216 16.554,61.227 16.554,61.227 C16.554,61.222 16.558,61.217 16.563,61.216 C17.471,61.013 18.482,60.911 19.596,60.911 C21.05,60.911 22.087,61.188 22.707,61.741 C23.135,62.128 23.349,62.625 23.349,63.231 C23.349,63.64 23.219,64.004 22.959,64.323 C22.67,64.669 22.283,64.877 21.797,64.947 C21.792,64.948 21.788,64.953 21.788,64.958 C21.788,64.958 21.788,64.984 21.788,64.984 C21.788,64.99 21.792,64.994 21.798,64.995 C22.299,65.042 22.718,65.211 23.051,65.505 C23.419,65.831 23.602,66.245 23.602,66.745 C23.602,66.745 23.602,66.745 23.602,66.745 Z "/>
</svg>
